<mxfile host="app.diagrams.net" modified="2021-04-14T04:33:48.066Z" agent="5.0 (Windows NT 10.0; Win64; x64) AppleWebKit/537.36 (KHTML, like Gecko) Chrome/89.0.4389.114 Safari/537.36 Edg/89.0.774.68" etag="EaxMRJawQoPpb-lSwrDP" version="14.4.9" type="github">
  <diagram id="ka9bZa-nr0W5A1v1ReRK" name="Page-1">
    <mxGraphModel dx="3122" dy="1872" grid="1" gridSize="10" guides="1" tooltips="1" connect="1" arrows="1" fold="1" page="1" pageScale="1" pageWidth="850" pageHeight="1100" math="0" shadow="0">
      <root>
        <mxCell id="0" />
        <mxCell id="1" parent="0" />
        <mxCell id="Bf0N0WOOEr7fCe_elxUy-45" style="edgeStyle=orthogonalEdgeStyle;rounded=0;orthogonalLoop=1;jettySize=auto;html=1;exitX=0.5;exitY=1;exitDx=0;exitDy=0;" edge="1" parent="1" source="Bf0N0WOOEr7fCe_elxUy-2" target="Bf0N0WOOEr7fCe_elxUy-9">
          <mxGeometry relative="1" as="geometry" />
        </mxCell>
        <mxCell id="Bf0N0WOOEr7fCe_elxUy-2" value="Order DOA" style="shape=process;whiteSpace=wrap;html=1;backgroundOutline=1;" vertex="1" parent="1">
          <mxGeometry x="407.5" y="-80" width="120" height="60" as="geometry" />
        </mxCell>
        <mxCell id="Bf0N0WOOEr7fCe_elxUy-38" style="edgeStyle=orthogonalEdgeStyle;rounded=0;orthogonalLoop=1;jettySize=auto;html=1;entryX=0;entryY=0.5;entryDx=0;entryDy=0;" edge="1" parent="1" source="Bf0N0WOOEr7fCe_elxUy-4" target="Bf0N0WOOEr7fCe_elxUy-5">
          <mxGeometry relative="1" as="geometry">
            <Array as="points">
              <mxPoint x="890" y="372" />
              <mxPoint x="820" y="372" />
              <mxPoint x="820" y="530" />
            </Array>
          </mxGeometry>
        </mxCell>
        <mxCell id="Bf0N0WOOEr7fCe_elxUy-4" value="OrderTotal" style="rounded=0;whiteSpace=wrap;html=1;" vertex="1" parent="1">
          <mxGeometry x="790" y="260" width="120" height="60" as="geometry" />
        </mxCell>
        <mxCell id="Bf0N0WOOEr7fCe_elxUy-39" style="edgeStyle=orthogonalEdgeStyle;rounded=0;orthogonalLoop=1;jettySize=auto;html=1;exitX=1;exitY=0.5;exitDx=0;exitDy=0;entryX=0;entryY=0.5;entryDx=0;entryDy=0;" edge="1" parent="1" source="Bf0N0WOOEr7fCe_elxUy-5" target="Bf0N0WOOEr7fCe_elxUy-6">
          <mxGeometry relative="1" as="geometry" />
        </mxCell>
        <mxCell id="Bf0N0WOOEr7fCe_elxUy-5" value="Level 10" style="shape=step;perimeter=stepPerimeter;whiteSpace=wrap;html=1;fixedSize=1;rounded=0;sketch=0;" vertex="1" parent="1">
          <mxGeometry x="850" y="490" width="130" height="80" as="geometry" />
        </mxCell>
        <mxCell id="Bf0N0WOOEr7fCe_elxUy-40" style="edgeStyle=orthogonalEdgeStyle;rounded=0;orthogonalLoop=1;jettySize=auto;html=1;exitX=1;exitY=0.5;exitDx=0;exitDy=0;entryX=0;entryY=0.5;entryDx=0;entryDy=0;" edge="1" parent="1" source="Bf0N0WOOEr7fCe_elxUy-6" target="Bf0N0WOOEr7fCe_elxUy-7">
          <mxGeometry relative="1" as="geometry" />
        </mxCell>
        <mxCell id="Bf0N0WOOEr7fCe_elxUy-6" value="Level 20" style="shape=step;perimeter=stepPerimeter;whiteSpace=wrap;html=1;fixedSize=1;rounded=0;sketch=0;" vertex="1" parent="1">
          <mxGeometry x="995" y="490" width="130" height="80" as="geometry" />
        </mxCell>
        <mxCell id="Bf0N0WOOEr7fCe_elxUy-41" style="edgeStyle=orthogonalEdgeStyle;rounded=0;orthogonalLoop=1;jettySize=auto;html=1;exitX=1;exitY=0.5;exitDx=0;exitDy=0;entryX=0;entryY=0.5;entryDx=0;entryDy=0;" edge="1" parent="1" source="Bf0N0WOOEr7fCe_elxUy-7" target="Bf0N0WOOEr7fCe_elxUy-8">
          <mxGeometry relative="1" as="geometry" />
        </mxCell>
        <mxCell id="Bf0N0WOOEr7fCe_elxUy-7" value="&amp;nbsp; &amp;nbsp; &amp;nbsp;Level 30" style="shape=step;perimeter=stepPerimeter;whiteSpace=wrap;html=1;fixedSize=1;rounded=0;sketch=0;" vertex="1" parent="1">
          <mxGeometry x="1130" y="490" width="130" height="80" as="geometry" />
        </mxCell>
        <mxCell id="Bf0N0WOOEr7fCe_elxUy-8" value="&amp;nbsp; &amp;nbsp; &amp;nbsp;Level 40" style="shape=step;perimeter=stepPerimeter;whiteSpace=wrap;html=1;fixedSize=1;rounded=0;sketch=0;" vertex="1" parent="1">
          <mxGeometry x="1279" y="490" width="121" height="80" as="geometry" />
        </mxCell>
        <mxCell id="Bf0N0WOOEr7fCe_elxUy-10" style="edgeStyle=orthogonalEdgeStyle;rounded=0;orthogonalLoop=1;jettySize=auto;html=1;entryX=0;entryY=0.5;entryDx=0;entryDy=0;" edge="1" parent="1" source="Bf0N0WOOEr7fCe_elxUy-9" target="Bf0N0WOOEr7fCe_elxUy-4">
          <mxGeometry relative="1" as="geometry">
            <mxPoint x="720" y="200" as="targetPoint" />
          </mxGeometry>
        </mxCell>
        <mxCell id="Bf0N0WOOEr7fCe_elxUy-24" value="Replenishment Order" style="edgeLabel;html=1;align=center;verticalAlign=middle;resizable=0;points=[];" vertex="1" connectable="0" parent="Bf0N0WOOEr7fCe_elxUy-10">
          <mxGeometry x="-0.2581" relative="1" as="geometry">
            <mxPoint as="offset" />
          </mxGeometry>
        </mxCell>
        <mxCell id="Bf0N0WOOEr7fCe_elxUy-12" style="edgeStyle=orthogonalEdgeStyle;rounded=0;orthogonalLoop=1;jettySize=auto;html=1;exitX=0;exitY=0.5;exitDx=0;exitDy=0;entryX=1;entryY=0.5;entryDx=0;entryDy=0;" edge="1" parent="1" source="Bf0N0WOOEr7fCe_elxUy-9" target="Bf0N0WOOEr7fCe_elxUy-11">
          <mxGeometry relative="1" as="geometry">
            <Array as="points">
              <mxPoint x="355" y="200" />
            </Array>
          </mxGeometry>
        </mxCell>
        <mxCell id="Bf0N0WOOEr7fCe_elxUy-23" value="No Charge Order" style="edgeLabel;html=1;align=center;verticalAlign=middle;resizable=0;points=[];" vertex="1" connectable="0" parent="Bf0N0WOOEr7fCe_elxUy-12">
          <mxGeometry x="0.1104" relative="1" as="geometry">
            <mxPoint as="offset" />
          </mxGeometry>
        </mxCell>
        <mxCell id="Bf0N0WOOEr7fCe_elxUy-9" value="No Charge | Replenishment" style="rhombus;whiteSpace=wrap;html=1;" vertex="1" parent="1">
          <mxGeometry x="385" y="125" width="165" height="150" as="geometry" />
        </mxCell>
        <mxCell id="Bf0N0WOOEr7fCe_elxUy-26" style="edgeStyle=orthogonalEdgeStyle;rounded=0;orthogonalLoop=1;jettySize=auto;html=1;entryX=0;entryY=0.5;entryDx=0;entryDy=0;" edge="1" parent="1" source="Bf0N0WOOEr7fCe_elxUy-11" target="Bf0N0WOOEr7fCe_elxUy-14">
          <mxGeometry relative="1" as="geometry">
            <mxPoint x="-790" y="410" as="targetPoint" />
            <Array as="points">
              <mxPoint x="-810" y="225" />
              <mxPoint x="-810" y="530" />
            </Array>
          </mxGeometry>
        </mxCell>
        <mxCell id="Bf0N0WOOEr7fCe_elxUy-11" value="Order Total" style="rounded=0;whiteSpace=wrap;html=1;" vertex="1" parent="1">
          <mxGeometry x="-860" y="170" width="120" height="60" as="geometry" />
        </mxCell>
        <mxCell id="Bf0N0WOOEr7fCe_elxUy-35" style="edgeStyle=orthogonalEdgeStyle;rounded=0;orthogonalLoop=1;jettySize=auto;html=1;exitX=1;exitY=0.5;exitDx=0;exitDy=0;entryX=0;entryY=0.5;entryDx=0;entryDy=0;" edge="1" parent="1" source="Bf0N0WOOEr7fCe_elxUy-14" target="Bf0N0WOOEr7fCe_elxUy-15">
          <mxGeometry relative="1" as="geometry" />
        </mxCell>
        <mxCell id="Bf0N0WOOEr7fCe_elxUy-14" value="&lt;font style=&quot;font-size: 10px&quot;&gt;&amp;nbsp; &amp;nbsp; Channel Support&amp;nbsp; &amp;nbsp; &amp;nbsp;Manager Approval&lt;/font&gt;" style="shape=step;perimeter=stepPerimeter;whiteSpace=wrap;html=1;fixedSize=1;rounded=0;sketch=0;" vertex="1" parent="1">
          <mxGeometry x="-740" y="490" width="110" height="80" as="geometry" />
        </mxCell>
        <mxCell id="Bf0N0WOOEr7fCe_elxUy-29" style="edgeStyle=orthogonalEdgeStyle;rounded=0;orthogonalLoop=1;jettySize=auto;html=1;exitX=1;exitY=0.5;exitDx=0;exitDy=0;" edge="1" parent="1" source="Bf0N0WOOEr7fCe_elxUy-15" target="Bf0N0WOOEr7fCe_elxUy-16">
          <mxGeometry relative="1" as="geometry" />
        </mxCell>
        <mxCell id="Bf0N0WOOEr7fCe_elxUy-15" value="Regional Manager Approval" style="shape=step;perimeter=stepPerimeter;whiteSpace=wrap;html=1;fixedSize=1;rounded=0;sketch=0;" vertex="1" parent="1">
          <mxGeometry x="-620" y="490" width="140" height="80" as="geometry" />
        </mxCell>
        <mxCell id="Bf0N0WOOEr7fCe_elxUy-30" style="edgeStyle=orthogonalEdgeStyle;rounded=0;orthogonalLoop=1;jettySize=auto;html=1;exitX=1;exitY=0.5;exitDx=0;exitDy=0;" edge="1" parent="1" source="Bf0N0WOOEr7fCe_elxUy-16" target="Bf0N0WOOEr7fCe_elxUy-17">
          <mxGeometry relative="1" as="geometry" />
        </mxCell>
        <mxCell id="Bf0N0WOOEr7fCe_elxUy-16" value="&amp;nbsp; &amp;nbsp; &amp;nbsp;Level 10" style="shape=step;perimeter=stepPerimeter;whiteSpace=wrap;html=1;fixedSize=1;rounded=0;sketch=0;" vertex="1" parent="1">
          <mxGeometry x="-470" y="490" width="130" height="80" as="geometry" />
        </mxCell>
        <mxCell id="Bf0N0WOOEr7fCe_elxUy-31" style="edgeStyle=orthogonalEdgeStyle;rounded=0;orthogonalLoop=1;jettySize=auto;html=1;exitX=1;exitY=0.5;exitDx=0;exitDy=0;entryX=0;entryY=0.5;entryDx=0;entryDy=0;" edge="1" parent="1" source="Bf0N0WOOEr7fCe_elxUy-17" target="Bf0N0WOOEr7fCe_elxUy-18">
          <mxGeometry relative="1" as="geometry" />
        </mxCell>
        <mxCell id="Bf0N0WOOEr7fCe_elxUy-17" value="&amp;nbsp; &amp;nbsp; &amp;nbsp;Level 20" style="shape=step;perimeter=stepPerimeter;whiteSpace=wrap;html=1;fixedSize=1;rounded=0;sketch=0;" vertex="1" parent="1">
          <mxGeometry x="-320" y="490" width="130" height="80" as="geometry" />
        </mxCell>
        <mxCell id="Bf0N0WOOEr7fCe_elxUy-32" style="edgeStyle=orthogonalEdgeStyle;rounded=0;orthogonalLoop=1;jettySize=auto;html=1;exitX=1;exitY=0.5;exitDx=0;exitDy=0;" edge="1" parent="1" source="Bf0N0WOOEr7fCe_elxUy-18" target="Bf0N0WOOEr7fCe_elxUy-19">
          <mxGeometry relative="1" as="geometry" />
        </mxCell>
        <mxCell id="Bf0N0WOOEr7fCe_elxUy-18" value="&amp;nbsp; &amp;nbsp; &amp;nbsp;Level 30" style="shape=step;perimeter=stepPerimeter;whiteSpace=wrap;html=1;fixedSize=1;rounded=0;sketch=0;" vertex="1" parent="1">
          <mxGeometry x="-180" y="490" width="130" height="80" as="geometry" />
        </mxCell>
        <mxCell id="Bf0N0WOOEr7fCe_elxUy-33" style="edgeStyle=orthogonalEdgeStyle;rounded=0;orthogonalLoop=1;jettySize=auto;html=1;exitX=1;exitY=0.5;exitDx=0;exitDy=0;entryX=0;entryY=0.5;entryDx=0;entryDy=0;" edge="1" parent="1" source="Bf0N0WOOEr7fCe_elxUy-19" target="Bf0N0WOOEr7fCe_elxUy-27">
          <mxGeometry relative="1" as="geometry" />
        </mxCell>
        <mxCell id="Bf0N0WOOEr7fCe_elxUy-19" value="&amp;nbsp; &amp;nbsp; &amp;nbsp;Level 40" style="shape=step;perimeter=stepPerimeter;whiteSpace=wrap;html=1;fixedSize=1;rounded=0;sketch=0;" vertex="1" parent="1">
          <mxGeometry x="-30" y="490" width="130" height="80" as="geometry" />
        </mxCell>
        <mxCell id="Bf0N0WOOEr7fCe_elxUy-20" value="&lt;font style=&quot;font-size: 9px&quot;&gt;Review level&amp;nbsp;&lt;/font&gt;" style="whiteSpace=wrap;html=1;align=center;verticalAlign=middle;treeFolding=1;treeMoving=1;newEdgeStyle={&quot;edgeStyle&quot;:&quot;elbowEdgeStyle&quot;,&quot;startArrow&quot;:&quot;none&quot;,&quot;endArrow&quot;:&quot;none&quot;};rounded=0;sketch=0;" vertex="1" parent="1">
          <mxGeometry x="-730" y="600" width="100" height="60" as="geometry" />
        </mxCell>
        <mxCell id="Bf0N0WOOEr7fCe_elxUy-21" value="&lt;font style=&quot;font-size: 9px&quot;&gt;Review level&amp;nbsp;&lt;/font&gt;" style="whiteSpace=wrap;html=1;align=center;verticalAlign=middle;treeFolding=1;treeMoving=1;newEdgeStyle={&quot;edgeStyle&quot;:&quot;elbowEdgeStyle&quot;,&quot;startArrow&quot;:&quot;none&quot;,&quot;endArrow&quot;:&quot;none&quot;};rounded=0;sketch=0;" vertex="1" parent="1">
          <mxGeometry x="-600" y="600" width="100" height="60" as="geometry" />
        </mxCell>
        <mxCell id="Bf0N0WOOEr7fCe_elxUy-22" value="&lt;font style=&quot;font-size: 15px&quot;&gt;Criteria: (Geography, Region, Country, User Approving Manager ) OR (Submitter&#39;s Approving Manager Field)&lt;/font&gt;" style="whiteSpace=wrap;html=1;align=center;verticalAlign=middle;treeFolding=1;treeMoving=1;newEdgeStyle={&quot;edgeStyle&quot;:&quot;elbowEdgeStyle&quot;,&quot;startArrow&quot;:&quot;none&quot;,&quot;endArrow&quot;:&quot;none&quot;};rounded=0;sketch=0;" vertex="1" parent="1">
          <mxGeometry x="-470" y="603" width="720" height="60" as="geometry" />
        </mxCell>
        <mxCell id="Bf0N0WOOEr7fCe_elxUy-27" value="&amp;nbsp; &amp;nbsp; &amp;nbsp;Level 50" style="shape=step;perimeter=stepPerimeter;whiteSpace=wrap;html=1;fixedSize=1;rounded=0;sketch=0;" vertex="1" parent="1">
          <mxGeometry x="120" y="490" width="130" height="80" as="geometry" />
        </mxCell>
        <mxCell id="Bf0N0WOOEr7fCe_elxUy-36" value="End" style="strokeWidth=1;html=1;shape=mxgraph.flowchart.terminator;whiteSpace=wrap;rounded=0;shadow=1;labelBackgroundColor=none;fontFamily=Verdana;fontSize=8;align=center;" vertex="1" parent="1">
          <mxGeometry x="340" y="515" width="60" height="30" as="geometry" />
        </mxCell>
        <mxCell id="Bf0N0WOOEr7fCe_elxUy-37" style="edgeStyle=orthogonalEdgeStyle;curved=0;rounded=1;sketch=0;orthogonalLoop=1;jettySize=auto;html=1;exitX=1;exitY=0.5;exitDx=0;exitDy=0;entryX=0;entryY=0.5;entryDx=0;entryDy=0;entryPerimeter=0;" edge="1" parent="1" target="Bf0N0WOOEr7fCe_elxUy-36">
          <mxGeometry relative="1" as="geometry">
            <mxPoint x="250" y="530" as="sourcePoint" />
          </mxGeometry>
        </mxCell>
        <mxCell id="Bf0N0WOOEr7fCe_elxUy-42" value="End" style="strokeWidth=1;html=1;shape=mxgraph.flowchart.terminator;whiteSpace=wrap;rounded=0;shadow=1;labelBackgroundColor=none;fontFamily=Verdana;fontSize=8;align=center;" vertex="1" parent="1">
          <mxGeometry x="1490" y="515" width="60" height="30" as="geometry" />
        </mxCell>
        <mxCell id="Bf0N0WOOEr7fCe_elxUy-43" style="edgeStyle=orthogonalEdgeStyle;curved=0;rounded=1;sketch=0;orthogonalLoop=1;jettySize=auto;html=1;exitX=1;exitY=0.5;exitDx=0;exitDy=0;entryX=0;entryY=0.5;entryDx=0;entryDy=0;entryPerimeter=0;" edge="1" parent="1" target="Bf0N0WOOEr7fCe_elxUy-42">
          <mxGeometry relative="1" as="geometry">
            <mxPoint x="1400" y="530" as="sourcePoint" />
          </mxGeometry>
        </mxCell>
        <mxCell id="Bf0N0WOOEr7fCe_elxUy-44" value="&lt;font style=&quot;font-size: 15px&quot;&gt;Criteria: Geography,User Approving Manager&lt;/font&gt;" style="whiteSpace=wrap;html=1;align=center;verticalAlign=middle;treeFolding=1;treeMoving=1;newEdgeStyle={&quot;edgeStyle&quot;:&quot;elbowEdgeStyle&quot;,&quot;startArrow&quot;:&quot;none&quot;,&quot;endArrow&quot;:&quot;none&quot;};rounded=0;sketch=0;" vertex="1" parent="1">
          <mxGeometry x="850" y="600" width="550" height="60" as="geometry" />
        </mxCell>
        <mxCell id="Bf0N0WOOEr7fCe_elxUy-47" value="&lt;font size=&quot;1&quot;&gt;Only for North America&lt;/font&gt;" style="whiteSpace=wrap;html=1;align=center;verticalAlign=middle;treeFolding=1;treeMoving=1;newEdgeStyle={&quot;edgeStyle&quot;:&quot;elbowEdgeStyle&quot;,&quot;startArrow&quot;:&quot;none&quot;,&quot;endArrow&quot;:&quot;none&quot;};rounded=0;sketch=0;" vertex="1" parent="1">
          <mxGeometry x="-735" y="440" width="255" height="20" as="geometry" />
        </mxCell>
        <mxCell id="Bf0N0WOOEr7fCe_elxUy-48" value="up to1000$" style="text;html=1;strokeColor=none;fillColor=none;align=center;verticalAlign=middle;whiteSpace=wrap;rounded=0;" vertex="1" parent="1">
          <mxGeometry x="-440" y="440" width="75" height="20" as="geometry" />
        </mxCell>
        <mxCell id="Bf0N0WOOEr7fCe_elxUy-50" value="up to 5000$" style="text;html=1;strokeColor=none;fillColor=none;align=center;verticalAlign=middle;whiteSpace=wrap;rounded=0;" vertex="1" parent="1">
          <mxGeometry x="-300" y="440" width="75" height="20" as="geometry" />
        </mxCell>
        <mxCell id="Bf0N0WOOEr7fCe_elxUy-51" value="up to 25000$" style="text;html=1;strokeColor=none;fillColor=none;align=center;verticalAlign=middle;whiteSpace=wrap;rounded=0;" vertex="1" parent="1">
          <mxGeometry x="-152.5" y="440" width="75" height="20" as="geometry" />
        </mxCell>
        <mxCell id="Bf0N0WOOEr7fCe_elxUy-52" value="up to 1.5M$" style="text;html=1;strokeColor=none;fillColor=none;align=center;verticalAlign=middle;whiteSpace=wrap;rounded=0;" vertex="1" parent="1">
          <mxGeometry x="-2.5" y="440" width="75" height="20" as="geometry" />
        </mxCell>
        <mxCell id="Bf0N0WOOEr7fCe_elxUy-53" value="&amp;gt;1.5M$" style="text;html=1;strokeColor=none;fillColor=none;align=center;verticalAlign=middle;whiteSpace=wrap;rounded=0;" vertex="1" parent="1">
          <mxGeometry x="140" y="440" width="75" height="20" as="geometry" />
        </mxCell>
        <mxCell id="Bf0N0WOOEr7fCe_elxUy-54" value="up to 250$" style="text;html=1;strokeColor=none;fillColor=none;align=center;verticalAlign=middle;whiteSpace=wrap;rounded=0;" vertex="1" parent="1">
          <mxGeometry x="877.5" y="450" width="75" height="20" as="geometry" />
        </mxCell>
        <mxCell id="Bf0N0WOOEr7fCe_elxUy-55" value="up to 1000$" style="text;html=1;strokeColor=none;fillColor=none;align=center;verticalAlign=middle;whiteSpace=wrap;rounded=0;" vertex="1" parent="1">
          <mxGeometry x="1021.5" y="451" width="75" height="20" as="geometry" />
        </mxCell>
        <mxCell id="Bf0N0WOOEr7fCe_elxUy-56" value="up to 5000$" style="text;html=1;strokeColor=none;fillColor=none;align=center;verticalAlign=middle;whiteSpace=wrap;rounded=0;" vertex="1" parent="1">
          <mxGeometry x="1157.5" y="450" width="75" height="20" as="geometry" />
        </mxCell>
        <mxCell id="Bf0N0WOOEr7fCe_elxUy-57" value="&amp;gt;5000$" style="text;html=1;strokeColor=none;fillColor=none;align=center;verticalAlign=middle;whiteSpace=wrap;rounded=0;" vertex="1" parent="1">
          <mxGeometry x="1307.5" y="450" width="75" height="20" as="geometry" />
        </mxCell>
      </root>
    </mxGraphModel>
  </diagram>
</mxfile>
